# xmcd
#
# Track frame offsets: 
#        150
#        132032
#        181005
#        238141
#        266623
#
# Disc length: 4462 seconds
#
# Revision: 0
# Processed by: cddbd v1.5.2PL0 Copyright (c) Steve Scherf et al.
# Submitted via: ExactAudioCopy v0.95b3
#
DISCID=3b116c05
DTITLE=Led Zeppelin  - The NEW Song Remains The Same Soundtrack - Disc
DTITLE=2
DYEAR=1900
DGENRE=
TTITLE0=Dazed and Confused
TTITLE1=Stairway to Heaven
TTITLE2=Moby Dick
TTITLE3=Heartbreaker
TTITLE4=Whole Lotta Love
EXTD=
EXTT0=
EXTT1=
EXTT2=
EXTT3=
EXTT4=
PLAYORDER=
